<mxfile host="app.diagrams.net" modified="2023-09-18T15:31:25.548Z" agent="Mozilla/5.0 (Windows NT 10.0; Win64; x64) AppleWebKit/537.36 (KHTML, like Gecko) Chrome/117.0.0.0 Safari/537.36" etag="spJADq92MengaFJky_w5" version="21.6.8" type="device">
  <diagram id="ElMXcovZxlgt0VPyKxh_" name="Page-1">
    <mxGraphModel dx="1666" dy="683" grid="1" gridSize="10" guides="1" tooltips="1" connect="1" arrows="1" fold="1" page="1" pageScale="1" pageWidth="850" pageHeight="1100" math="0" shadow="0">
      <root>
        <mxCell id="0" />
        <mxCell id="1" parent="0" />
        <mxCell id="CjoSG-cmqW8xB-3hZyRr-1" style="edgeStyle=orthogonalEdgeStyle;rounded=0;orthogonalLoop=1;jettySize=auto;html=1;" edge="1" parent="1" source="-pSlb4P0oNWnuijvpXDX-3" target="-pSlb4P0oNWnuijvpXDX-10">
          <mxGeometry relative="1" as="geometry" />
        </mxCell>
        <mxCell id="-pSlb4P0oNWnuijvpXDX-3" value="&lt;b&gt;Start&lt;/b&gt;" style="strokeWidth=2;html=1;shape=mxgraph.flowchart.start_1;whiteSpace=wrap;" parent="1" vertex="1">
          <mxGeometry x="120" y="100" width="100" height="60" as="geometry" />
        </mxCell>
        <mxCell id="-pSlb4P0oNWnuijvpXDX-5" value="&lt;b&gt;End&lt;/b&gt;" style="strokeWidth=2;html=1;shape=mxgraph.flowchart.start_1;whiteSpace=wrap;" parent="1" vertex="1">
          <mxGeometry x="110" y="860" width="100" height="60" as="geometry" />
        </mxCell>
        <mxCell id="CjoSG-cmqW8xB-3hZyRr-2" style="edgeStyle=orthogonalEdgeStyle;rounded=0;orthogonalLoop=1;jettySize=auto;html=1;entryX=0.5;entryY=0;entryDx=0;entryDy=0;" edge="1" parent="1" source="-pSlb4P0oNWnuijvpXDX-10" target="-pSlb4P0oNWnuijvpXDX-11">
          <mxGeometry relative="1" as="geometry" />
        </mxCell>
        <mxCell id="-pSlb4P0oNWnuijvpXDX-10" value="sum_of_scores = 0" style="rounded=1;whiteSpace=wrap;html=1;absoluteArcSize=1;arcSize=14;strokeWidth=2;" parent="1" vertex="1">
          <mxGeometry x="90" y="210" width="160" height="60" as="geometry" />
        </mxCell>
        <mxCell id="-pSlb4P0oNWnuijvpXDX-19" style="edgeStyle=orthogonalEdgeStyle;rounded=0;orthogonalLoop=1;jettySize=auto;html=1;entryX=0.5;entryY=0;entryDx=0;entryDy=0;" parent="1" source="-pSlb4P0oNWnuijvpXDX-11" target="-pSlb4P0oNWnuijvpXDX-13" edge="1">
          <mxGeometry relative="1" as="geometry" />
        </mxCell>
        <mxCell id="-pSlb4P0oNWnuijvpXDX-11" value="number_of_scores = 0" style="rounded=1;whiteSpace=wrap;html=1;absoluteArcSize=1;arcSize=14;strokeWidth=2;" parent="1" vertex="1">
          <mxGeometry x="90" y="315" width="160" height="60" as="geometry" />
        </mxCell>
        <mxCell id="-pSlb4P0oNWnuijvpXDX-16" style="edgeStyle=orthogonalEdgeStyle;rounded=0;orthogonalLoop=1;jettySize=auto;html=1;entryX=0;entryY=0.5;entryDx=0;entryDy=0;" parent="1" source="-pSlb4P0oNWnuijvpXDX-12" target="-pSlb4P0oNWnuijvpXDX-14" edge="1">
          <mxGeometry relative="1" as="geometry" />
        </mxCell>
        <mxCell id="-pSlb4P0oNWnuijvpXDX-21" value="No" style="edgeLabel;html=1;align=center;verticalAlign=middle;resizable=0;points=[];" parent="-pSlb4P0oNWnuijvpXDX-16" vertex="1" connectable="0">
          <mxGeometry x="-0.1231" relative="1" as="geometry">
            <mxPoint as="offset" />
          </mxGeometry>
        </mxCell>
        <mxCell id="-pSlb4P0oNWnuijvpXDX-35" style="edgeStyle=orthogonalEdgeStyle;rounded=0;orthogonalLoop=1;jettySize=auto;html=1;entryX=0.566;entryY=-0.017;entryDx=0;entryDy=0;entryPerimeter=0;" parent="1" source="-pSlb4P0oNWnuijvpXDX-12" target="-pSlb4P0oNWnuijvpXDX-27" edge="1">
          <mxGeometry relative="1" as="geometry" />
        </mxCell>
        <mxCell id="-pSlb4P0oNWnuijvpXDX-12" value="score == -1" style="strokeWidth=2;html=1;shape=mxgraph.flowchart.decision;whiteSpace=wrap;" parent="1" vertex="1">
          <mxGeometry x="95" y="515" width="150" height="100" as="geometry" />
        </mxCell>
        <mxCell id="-pSlb4P0oNWnuijvpXDX-20" style="edgeStyle=orthogonalEdgeStyle;rounded=0;orthogonalLoop=1;jettySize=auto;html=1;exitX=0.5;exitY=1;exitDx=0;exitDy=0;entryX=0.5;entryY=0;entryDx=0;entryDy=0;entryPerimeter=0;" parent="1" source="-pSlb4P0oNWnuijvpXDX-13" target="-pSlb4P0oNWnuijvpXDX-12" edge="1">
          <mxGeometry relative="1" as="geometry" />
        </mxCell>
        <mxCell id="-pSlb4P0oNWnuijvpXDX-13" value="score = &quot;Enter a score: &quot;" style="shape=parallelogram;html=1;strokeWidth=2;perimeter=parallelogramPerimeter;whiteSpace=wrap;rounded=1;arcSize=12;size=0.23;" parent="1" vertex="1">
          <mxGeometry x="40" y="425" width="260" height="60" as="geometry" />
        </mxCell>
        <mxCell id="-pSlb4P0oNWnuijvpXDX-17" value="" style="edgeStyle=orthogonalEdgeStyle;rounded=0;orthogonalLoop=1;jettySize=auto;html=1;" parent="1" source="-pSlb4P0oNWnuijvpXDX-14" target="-pSlb4P0oNWnuijvpXDX-15" edge="1">
          <mxGeometry relative="1" as="geometry" />
        </mxCell>
        <mxCell id="-pSlb4P0oNWnuijvpXDX-14" value="sum_of_scores += score" style="rounded=1;whiteSpace=wrap;html=1;absoluteArcSize=1;arcSize=14;strokeWidth=2;" parent="1" vertex="1">
          <mxGeometry x="320" y="535" width="160" height="60" as="geometry" />
        </mxCell>
        <mxCell id="-pSlb4P0oNWnuijvpXDX-22" style="edgeStyle=orthogonalEdgeStyle;rounded=0;orthogonalLoop=1;jettySize=auto;html=1;entryX=0.5;entryY=0;entryDx=0;entryDy=0;" parent="1" source="-pSlb4P0oNWnuijvpXDX-15" target="-pSlb4P0oNWnuijvpXDX-13" edge="1">
          <mxGeometry relative="1" as="geometry">
            <mxPoint x="410" y="355" as="targetPoint" />
            <Array as="points">
              <mxPoint x="410" y="395" />
              <mxPoint x="170" y="395" />
            </Array>
          </mxGeometry>
        </mxCell>
        <mxCell id="-pSlb4P0oNWnuijvpXDX-15" value="number_of_scores = += 1" style="rounded=1;whiteSpace=wrap;html=1;absoluteArcSize=1;arcSize=14;strokeWidth=2;" parent="1" vertex="1">
          <mxGeometry x="320" y="445" width="160" height="60" as="geometry" />
        </mxCell>
        <mxCell id="-pSlb4P0oNWnuijvpXDX-25" value="Yes" style="text;html=1;strokeColor=none;fillColor=none;align=center;verticalAlign=middle;whiteSpace=wrap;rounded=0;" parent="1" vertex="1">
          <mxGeometry x="160" y="615" width="60" height="30" as="geometry" />
        </mxCell>
        <mxCell id="CjoSG-cmqW8xB-3hZyRr-4" style="edgeStyle=orthogonalEdgeStyle;rounded=0;orthogonalLoop=1;jettySize=auto;html=1;entryX=0.5;entryY=0;entryDx=0;entryDy=0;" edge="1" parent="1" source="-pSlb4P0oNWnuijvpXDX-27" target="-pSlb4P0oNWnuijvpXDX-34">
          <mxGeometry relative="1" as="geometry" />
        </mxCell>
        <mxCell id="-pSlb4P0oNWnuijvpXDX-27" value="average = sum_of_scores /&lt;br&gt;number_of_scores" style="rounded=1;whiteSpace=wrap;html=1;absoluteArcSize=1;arcSize=14;strokeWidth=2;" parent="1" vertex="1">
          <mxGeometry x="80" y="655" width="160" height="60" as="geometry" />
        </mxCell>
        <mxCell id="-pSlb4P0oNWnuijvpXDX-30" value="" style="endArrow=classic;html=1;rounded=0;" parent="1" edge="1">
          <mxGeometry width="50" height="50" relative="1" as="geometry">
            <mxPoint x="55" y="435" as="sourcePoint" />
            <mxPoint x="90" y="435" as="targetPoint" />
          </mxGeometry>
        </mxCell>
        <mxCell id="CjoSG-cmqW8xB-3hZyRr-3" style="edgeStyle=orthogonalEdgeStyle;rounded=0;orthogonalLoop=1;jettySize=auto;html=1;" edge="1" parent="1" source="-pSlb4P0oNWnuijvpXDX-34">
          <mxGeometry relative="1" as="geometry">
            <mxPoint x="320" y="790" as="targetPoint" />
          </mxGeometry>
        </mxCell>
        <mxCell id="CjoSG-cmqW8xB-3hZyRr-5" style="edgeStyle=orthogonalEdgeStyle;rounded=0;orthogonalLoop=1;jettySize=auto;html=1;" edge="1" parent="1" source="-pSlb4P0oNWnuijvpXDX-34" target="-pSlb4P0oNWnuijvpXDX-5">
          <mxGeometry relative="1" as="geometry" />
        </mxCell>
        <mxCell id="-pSlb4P0oNWnuijvpXDX-34" value="output: &quot;Student: &quot; + name&lt;br&gt;&quot;Average score: &quot; + average" style="shape=parallelogram;html=1;strokeWidth=2;perimeter=parallelogramPerimeter;whiteSpace=wrap;rounded=1;arcSize=12;size=0.23;" parent="1" vertex="1">
          <mxGeometry x="45" y="760" width="230" height="60" as="geometry" />
        </mxCell>
        <mxCell id="-pSlb4P0oNWnuijvpXDX-41" value="&lt;font style=&quot;font-size: 15px;&quot;&gt;Write a program that prompts the user to enter grade scores or type -1 to quit entering scores. Print the average score.&lt;/font&gt;&lt;span id=&quot;docs-internal-guid-104f8bd7-7fff-e56b-2dc1-b3f68fdb1ac3&quot; style=&quot;font-weight:normal;&quot;&gt;&lt;/span&gt;" style="text;html=1;strokeColor=none;fillColor=none;align=center;verticalAlign=middle;whiteSpace=wrap;rounded=0;fontStyle=1" parent="1" vertex="1">
          <mxGeometry x="270" y="90" width="430" height="240" as="geometry" />
        </mxCell>
      </root>
    </mxGraphModel>
  </diagram>
</mxfile>
